<?xml version="1.0" standalone="no"?>
<!DOCTYPE svg PUBLIC "-//W3C//DTD SVG 20010904//EN"
 "http://www.w3.org/TR/2001/REC-SVG-20010904/DTD/svg10.dtd">
<svg version="1.0" xmlns="http://www.w3.org/2000/svg"
 width="512.000000pt" height="512.000000pt" viewBox="0 0 512.000000 512.000000"
 preserveAspectRatio="xMidYMid meet">

<g transform="translate(0.000000,512.000000) scale(0.100000,-0.100000)"
fill="#000000" stroke="none">
<path d="M1155 4834 c-149 -36 -302 -147 -378 -275 -54 -91 -77 -176 -84 -302
l-6 -108 -129 -65 c-152 -76 -206 -122 -251 -213 l-32 -66 0 -300 0 -300 28
-57 c59 -120 165 -193 309 -212 l77 -10 3 -766 c3 -758 3 -766 25 -830 44
-128 134 -247 239 -316 l52 -33 4 -208 c4 -185 7 -214 27 -265 40 -103 135
-194 234 -223 72 -21 471 -22 544 0 113 34 207 128 243 244 16 52 20 92 20
222 l0 159 480 0 480 0 0 -159 c0 -130 4 -170 20 -222 35 -115 132 -211 243
-244 72 -21 471 -22 543 0 101 30 194 118 235 223 20 51 23 80 27 264 l4 207
47 30 c105 68 201 194 244 321 22 64 22 72 25 830 l3 766 83 11 c50 7 104 22
134 37 66 34 134 103 169 174 l28 57 0 300 0 300 -32 66 c-45 91 -99 137 -251
213 l-129 65 -6 108 c-3 65 -14 134 -26 173 -62 198 -234 356 -441 404 -95 23
-2712 22 -2805 0z m2801 -336 c57 -30 109 -84 132 -137 18 -45 27 -183 17
-285 l-7 -76 -1538 0 -1538 0 -7 76 c-10 102 -1 240 17 285 31 71 104 134 188
160 14 4 624 7 1355 6 l1330 -2 51 -27z m-3266 -978 l0 -270 -29 0 c-16 0 -38
8 -50 18 -21 17 -21 22 -19 247 l3 230 40 22 c22 12 43 22 48 22 4 1 7 -120 7
-269z m3795 247 l40 -23 3 -229 c2 -225 2 -230 -19 -247 -12 -10 -34 -18 -50
-18 l-29 0 0 270 c0 149 3 270 8 270 4 0 25 -11 47 -23z m-385 -672 l0 -585
-1540 0 -1540 0 0 585 0 585 1540 0 1540 0 0 -585z m5 -1285 c0 -414 1 -409
-65 -484 -18 -20 -56 -49 -84 -64 l-51 -27 -1345 0 -1345 0 -42 23 c-63 33
-109 77 -135 130 -23 46 -23 54 -26 411 -2 200 -1 370 2 377 5 12 247 14 1548
12 l1543 -3 0 -375z m-2345 -1049 c0 -114 -3 -143 -16 -155 -13 -13 -45 -16
-199 -16 -229 0 -215 -12 -215 177 l0 133 215 0 215 0 0 -139z m2030 6 c0
-189 14 -177 -215 -177 -154 0 -186 3 -199 16 -13 12 -16 41 -16 155 l0 139
215 0 215 0 0 -133z"/>
<path d="M1764 4419 c-45 -13 -100 -78 -109 -128 -9 -53 25 -126 74 -158 l34
-23 794 0 c681 0 798 2 823 15 62 32 99 115 81 183 -13 46 -65 99 -112 112
-43 13 -1542 12 -1585 -1z"/>
<path d="M1524 2016 c-93 -23 -175 -92 -216 -181 -35 -76 -33 -191 5 -267 30
-62 83 -115 149 -150 36 -19 58 -23 138 -23 80 0 102 4 138 23 66 35 119 88
149 150 38 76 40 191 5 267 -43 93 -130 163 -230 184 -63 13 -72 13 -138 -3z"/>
<path d="M3444 2016 c-93 -23 -175 -92 -216 -181 -35 -76 -33 -191 5 -267 30
-62 83 -115 149 -150 36 -19 58 -23 138 -23 80 0 102 4 138 23 66 35 119 88
149 150 38 76 40 191 5 267 -43 93 -130 163 -230 184 -63 13 -72 13 -138 -3z"/>
<path d="M2280 1848 c-66 -34 -93 -79 -88 -149 5 -65 32 -109 82 -133 29 -13
74 -16 286 -16 212 0 257 3 286 16 50 24 77 68 82 133 5 70 -22 115 -88 149
-42 21 -55 22 -280 22 -225 0 -238 -1 -280 -22z"/>
</g>
</svg>
